<?xml version="1.0" encoding="UTF-8" standalone="no"?>
<!-- Created with Inkscape (http://www.inkscape.org/) -->

<svg
   version="1.1"
   id="svg2"
   width="2056"
   height="1306.6667"
   viewBox="0 0 2056 1306.6667"
   sodipodi:docname="town.eps"
   xmlns:inkscape="http://www.inkscape.org/namespaces/inkscape"
   xmlns:sodipodi="http://sodipodi.sourceforge.net/DTD/sodipodi-0.dtd"
   xmlns="http://www.w3.org/2000/svg"
   xmlns:svg="http://www.w3.org/2000/svg">
  <defs
     id="defs6" />
  <sodipodi:namedview
     id="namedview4"
     pagecolor="#ffffff"
     bordercolor="#000000"
     borderopacity="0.25"
     inkscape:showpageshadow="2"
     inkscape:pageopacity="0.0"
     inkscape:pagecheckerboard="0"
     inkscape:deskcolor="#d1d1d1" />
  <g
     id="g8"
     inkscape:groupmode="layer"
     inkscape:label="ink_ext_XXXXXX"
     transform="matrix(1.3333333,0,0,-1.3333333,0,1306.6667)">
    <g
       id="g10"
       transform="scale(0.1)">
      <path
         d="M 60,8380 H 0 v 0 h 60 v 0"
         style="fill:#ebebeb;fill-opacity:1;fill-rule:nonzero;stroke:none"
         id="path12" />
      <path
         d="M 15420,0 H 1020 V 9800 H 15420 V 0"
         style="fill:#ffffff;fill-opacity:1;fill-rule:nonzero;stroke:none"
         id="path14" />
      <path
         d="m 11870,4510 v 3020 h 130 v 110 h -130 v 110 h -450 v 380 h -50 v -380 h -170 v -110 h -130 v -110 h 130 V 4510 H 8510.56 v 3288.46 l -1201.11,-360 v -220 H 7190 v -230 h 119.45 v -200 H 7190 v -230 h 119.45 v -590 H 6770 v 2260 h -100 v 190 h -110 v 220 h -220 v 470 h -50 v -470 h -220 v -220 h -110 v -190 h -100 v -1710 h -590 -180 v -230 h 180 V 4510 H 3250 v 1618.46 h 130 v 110 h -130 v 110 h -450 v 380 h -50 v -380 h -170 v -110 h -130 v -110 h 130 V 4510 H 1020 V 2890 h 12470 v 1620 h -1620"
         style="fill:#999999;fill-opacity:1;fill-rule:nonzero;stroke:none"
         id="path16" />
      <path
         d="m 14490,3610 v 3438.46 h 180 v 230 h -180 v 200 h 180 v 230 h -180 v 200 h 180 v 230 h -180 v 180 h -500 v 240 h -80 v -240 -180 h -1410 v -230 h 180 v -200 h -180 v -230 h 180 v -200 h -180 v -230 h 180 V 3610 h -1310 v 1218.46 h 193.5 v 110 h -193.5 -926.9 -93.1 v 1590 h -100 v 190 h -110 v 220 h -220 v 470 h -50 v -470 h -220 v -220 h -110 v -190 H 9440 V 3610 h -99.62 V 4938.46 H 9130 v 270 h -60 v -270 h -389.62 v 1480 L 8300,6158.2 v 530.26 h -60 v -571.32 l -290.38,-198.68 v -1780 H 6290.38 v 450 h -700 v 270 H 5670 v 80 H 5590.38 5380 v 270 h -60 v -270 h -160 v 440 h -60 v -440 H 4859.62 4780 v -80 h 79.62 V 3610 h -109.24 v 2858.46 l -380,260.01 v 479.99 l -730.76,500 V 3610 H 2900.38 V 5498.46 H 2980 v 80 h -79.62 v 180 H 2680 v -180 H 2169.62 2090 v -80 h 79.62 v -600 h -460 V 3610 H 1020 v -710 h 14400 v 710 h -930"
         style="fill:#333333;fill-opacity:1;fill-rule:nonzero;stroke:none"
         id="path18" />
      <path
         d="m 15111.5,3423.08 -303,542.3 h -9.6 V 4750 h -440.4 v -784.62 h -242.3 v 438.47 h -80.8 v 115.38 h -69.2 v -115.38 h -309.6 V 4750 h -440.4 v -346.15 -980.77 h -369.3 v 2642.31 l -1153.8,830.76 V 4205.73 l -369.3,-274.96 h -242.3 v 2134.62 h 34.7 v 103.84 h -34.7 -184.6 v 57.69 h -219.2 v 115.39 h -46.2 v -115.39 -57.69 h -184.6 -34.6 v -103.84 h 34.6 V 4403.85 h -265.4 v -750 h -242.27 v 425.77 h -588.46 v 393.46 h 80.77 v 80.77 h -80.77 v 80.77 h -265.39 v -80.77 h -334.61 v 188.78 h -46.15 v -188.78 h -150 v 188.78 h -46.16 v -188.78 h -276.92 v -9.61 -71.16 -1050 h -403.85 v 1765.38 h 150 v 80.77 h -150 v 115.38 h -150 V 5500 H 6650.77 v -115.39 h -150 v -115.38 h -150 v -80.77 h 150 V 3423.08 h -20.02 l -303.06,542.3 H 5820 v 473.09 h 46.15 v 69.23 H 5820 5646.92 v 311.53 h -46.15 V 4507.7 h -69.23 v 138.45 h -46.15 V 4507.7 H 5370 5323.85 v -69.23 H 5370 v -473.09 -334.61 h -369.23 v 242.31 1442.31 69.22 h -265.38 v -69.22 h -253.85 v 57.69 h -46.15 v -57.69 H 4320 V 4017.14 h -207.69 v 340.56 h 80.77 v 69.22 h -392.31 v 669.23 h 34.62 V 5200 h -34.62 -184.62 v 57.7 h -219.23 v 115.38 h -46.15 V 5257.7 5200 h -184.62 -34.61 v -103.85 h 34.61 v -692.3 h -265.38 v -750 h -265.38 v 750 V 4750 H 2370 V 4403.85 H 2093.08 V 3423.08 H 1770 v 230.77 h -323.08 v 265.38 H 1020 v -550.77 -187.69 -292.31 h 14400 v 292.31 187.69 54.62 h -308.5"
         style="fill:#000000;fill-opacity:1;fill-rule:nonzero;stroke:none"
         id="path20" />
      <path
         d="m 15111.5,2608.54 -303,-283.96 h -9.6 v -410.83 h -440.4 v 410.83 h -242.3 v -229.59 h -80.8 v -60.41 h -69.2 v 60.41 h -309.6 v -181.24 h -440.4 v 181.24 513.55 h -369.3 V 1225 L 11693.1,790 v 1408.73 l -369.3,143.98 h -242.3 V 1225 h 34.7 v -54.38 h -34.7 -184.6 v -30.21 h -219.2 V 1080 h -46.2 v 60.41 30.21 h -184.6 -34.6 V 1225 h 34.6 v 869.99 h -265.4 v 392.71 h -242.27 v -222.93 h -588.46 v -206.03 h 80.77 v -42.28 h -80.77 v -42.3 h -265.39 v 42.3 h -334.61 v -98.85 h -46.15 v 98.85 h -150 v -98.85 h -46.16 v 98.85 h -276.92 v 5.02 37.26 549.8 h -403.85 v -924.38 h 150 v -42.29 h -150 v -60.41 h -150 v -60.42 H 6650.77 v 60.42 h -150 v 60.41 h -150 v 42.29 h 150 v 924.38 h -20.02 L 6177.69,2324.58 H 5820 v -247.71 h 46.15 v -36.25 H 5820 5646.92 v -163.13 h -46.15 v 163.13 h -69.23 v -72.5 h -46.15 v 72.5 H 5370 5323.85 v 36.25 H 5370 v 247.71 175.21 h -369.23 v -126.88 -755.2 -36.25 h -265.38 v 36.25 h -253.85 v -30.21 h -46.15 v 30.21 H 4320 v 679.77 h -207.69 v -178.32 h 80.77 v -36.25 H 3800.77 V 1732.5 h 34.62 v -54.38 h -34.62 -184.62 v -30.21 h -219.23 v -60.41 h -46.15 v 60.41 30.21 h -184.62 -34.61 v 54.38 h 34.61 v 362.49 H 2900.77 V 2487.7 H 2635.39 V 2094.99 1913.74 H 2370 v 181.25 h -276.92 v 513.55 H 1770 V 2487.7 H 1446.92 V 2348.74 H 1020 v 288.39 98.28 153.05 h 14400 v -153.05 -98.28 -28.59 h -308.5"
         style="fill:#ebebeb;fill-opacity:1;fill-rule:nonzero;stroke:none"
         id="path22" />
    </g>
  </g>
</svg>
